name C:\Users\u0101727\Documents\MyRepositories\upper-imu-dc\Results\main_tracking\Case_22\kinematics.mot
datacolumns 10
datarows 42
range 0.70000000 1.11000000
endheader 
time	clav_prot	clav_elev	scapula_abduction	scapula_elevation	scapula_upward_rot	scapula_winging	plane_elv	shoulder_elv	axial_rot	
          0.70000000	        -17.79064255	         -3.35564053	         -3.30860933	         -3.53967836	         14.77239419	          4.13558889	        -18.50009518	         15.27628067	         35.47274847	
          0.71000000	        -17.78956080	         -3.42207562	         -3.35704123	         -3.53590010	         14.69508872	          4.15185117	        -18.45092252	         15.16953190	         35.75544947	
          0.72000000	        -17.74856138	         -3.41873953	         -3.29757031	         -3.52615226	         14.67519151	          4.14836790	        -18.39159179	         15.11807419	         36.04318601	
          0.73000000	        -17.71747133	         -3.40342094	         -3.23768909	         -3.51676987	         14.69008140	          4.13431155	        -18.32658472	         15.11096308	         36.33429617	
          0.74000000	        -17.69021952	         -3.37989233	         -3.17305517	         -3.50717185	         14.72758002	          4.11278604	        -18.25777165	         15.13471009	         36.62019651	
          0.75000000	        -17.66528862	         -3.35037678	         -3.10455505	         -3.49718916	         14.78079383	          4.08593101	        -18.18736523	         15.17965736	         36.88663314	
          0.76000000	        -17.64792031	         -3.31741051	         -3.04191759	         -3.48851724	         14.84781930	          4.05596450	        -18.11874499	         15.23808678	         37.11712826	
          0.77000000	        -17.65231614	         -3.28473072	         -3.00709065	         -3.48561402	         14.93220322	          4.02573735	        -18.05728458	         15.30155767	         37.29839584	
          0.78000000	        -17.70343918	         -3.25771488	         -3.03700037	         -3.49623288	         15.04340037	          3.99901387	        -18.01084837	         15.35845670	         37.42528514	
          0.79000000	        -17.83778159	         -3.24329113	         -3.18500662	         -3.53131323	         15.19648207	          3.98037528	        -17.98959583	         15.39258493	         37.50242188	
          0.80000000	        -18.10208023	         -3.24890355	         -3.51992967	         -3.60360968	         15.41005947	          3.97443949	        -18.00493685	         15.38372321	         37.54150574	
          0.81000000	        -18.54877719	         -3.27981176	         -4.12147208	         -3.72413726	         15.70109381	          3.98403225	        -18.06740808	         15.31113270	         37.55586449	
          0.82000000	        -19.22581004	         -3.33385463	         -5.06949025	         -3.89510888	         16.07431699	          4.00725405	        -18.18255836	         15.16166718	         37.55538847	
          0.83000000	        -20.15651305	         -3.39360777	         -6.42206511	         -4.09837781	         16.50326208	          4.03472078	        -18.34109679	         14.94479007	         37.54426760	
          0.84000000	        -21.26181228	         -3.42076216	         -8.10742386	         -4.27689426	         16.88924352	          4.05191555	        -18.48902670	         14.72666825	         37.52591684	
          0.85000000	        -21.53681822	         -3.42447174	         -8.51479312	         -4.32377538	         17.00363710	          4.04485642	        -18.45485109	         14.67546162	         37.49601613	
          0.86000000	        -20.85619684	         -3.39328553	         -7.49889271	         -4.19611913	         16.74035617	          4.04630489	        -18.15358142	         14.86583569	         37.44382520	
          0.87000000	        -20.26350663	         -3.27247229	         -6.74294091	         -3.97047771	         16.33605340	          4.05272779	        -17.86363615	         15.15147625	         37.37347754	
          0.88000000	        -19.89196421	         -3.13813270	         -6.31539803	         -3.77066938	         16.02822810	          4.04916066	        -17.68601920	         15.37250364	         37.27269311	
          0.89000000	        -19.92272824	         -3.03984813	         -6.44579769	         -3.67653618	         15.94451166	          4.04594391	        -17.61937413	         15.44306602	         37.13259757	
          0.90000000	        -20.39293954	         -2.98356945	         -7.18522172	         -3.70046155	         16.10616449	          4.04053932	        -17.63072672	         15.35088027	         36.94867490	
          0.91000000	        -21.19921565	         -2.92849743	         -8.41992082	         -3.78155650	         16.41470168	          4.01891350	        -17.65105573	         15.16607230	         36.72197041	
          0.92000000	        -21.57643810	         -2.85353483	         -8.97364038	         -3.79687766	         16.61664820	          3.97243432	        -17.51856787	         15.07652462	         36.44838587	
          0.93000000	        -21.50885370	         -2.74109263	         -8.88457502	         -3.70828203	         16.61888913	          3.93441106	        -17.16294546	         15.15180273	         36.11598553	
          0.94000000	        -21.48544099	         -2.59871884	         -8.85506648	         -3.60999487	         16.66281360	          3.88042151	        -16.75837780	         15.19910557	         35.73390606	
          0.95000000	        -21.51262391	         -2.43348517	         -8.88716411	         -3.51076552	         16.76041501	          3.81005535	        -16.33376965	         15.21344499	         35.29694902	
          0.96000000	        -21.47753031	         -2.23772600	         -8.81753431	         -3.38557440	         16.86074265	          3.72701242	        -15.86782377	         15.23101611	         34.81418893	
          0.97000000	        -21.47072336	         -1.98868677	         -8.79477211	         -3.22893812	         16.98980937	          3.62500365	        -15.41465842	         15.21782323	         34.30889407	
          0.98000000	        -21.38069121	         -1.67918660	         -8.67312746	         -3.01038166	         17.07270112	          3.51558162	        -14.93009528	         15.21898118	         33.79452076	
          0.99000000	        -20.89432482	         -1.30906432	         -7.94191534	         -2.69694023	         17.04838576	          3.39266513	        -14.32807783	         15.25860922	         33.29378078	
          1.00000000	        -20.15605537	         -0.84976639	         -6.91834970	         -2.25190000	         16.82191123	          3.27829327	        -13.55691197	         15.41494267	         32.81755311	
          1.01000000	        -19.22312348	         -0.31846144	         -5.62474731	         -1.71976627	         16.50442876	          3.14420121	        -12.69964838	         15.60981529	         32.38158558	
          1.02000000	        -18.48780722	          0.25078325	         -4.65084679	         -1.18555604	         16.24708667	          3.00577545	        -11.85870868	         15.74631076	         31.98758596	
          1.03000000	        -17.99014912	          0.81274302	         -4.01387581	         -0.70385824	         16.12321419	          2.86958762	        -11.07871958	         15.78604649	         31.63140466	
          1.04000000	        -17.73726683	          1.33657581	         -3.69938746	         -0.30708151	         16.16744342	          2.73822771	        -10.37716837	         15.71491330	         31.30734470	
          1.05000000	        -17.73091414	          1.80180239	         -3.69625130	         -0.01447201	         16.39467824	          2.61042143	         -9.75703998	         15.52745754	         31.01079012	
          1.06000000	        -17.97254053	          2.19689576	         -4.00091883	          0.16495027	         16.80701252	          2.48177841	         -9.21360778	         15.22137621	         30.74133311	
          1.07000000	        -18.45502533	          2.52234312	         -4.60601535	          0.23590951	         17.39061825	          2.34541307	         -8.73753040	         14.80000156	         30.50390142	
          1.08000000	        -19.13835689	          2.79864329	         -5.46926757	          0.22735779	         18.10235400	          2.19365229	         -8.31396429	         14.28297731	         30.30752984	
          1.09000000	        -19.89408533	          3.07792144	         -6.43686663	          0.20974642	         18.84597962	          2.02343824	         -7.91481357	         13.72540548	         30.16297166	
          1.10000000	        -24.59883377	          3.78291158	        -14.64792665	          0.31349963	         19.43205125	          1.84838566	         -7.48490294	         13.25510170	         30.07832590	
          1.11000000	        -20.04124140	          3.91142562	         -6.46994265	          0.62434816	         19.65576156	          1.71236047	         -6.99936764	         13.02632982	         30.04812780	
